<svg xmlns="http://www.w3.org/2000/svg" viewBox="0 0 20 20"><defs><style>.cls-1{fill:#fa8e07;}.cls-2{fill:none;}</style></defs><g id="图层_2" data-name="图层 2"><g id="菜单"><path class="cls-1" d="M16.29,20h1.17a.67.67,0,0,0,.68-.68h0V10a.73.73,0,0,1,.73-.73h0a.73.73,0,0,0,.74-.74.75.75,0,0,0-.18-.48L10.26.1a.39.39,0,0,0-.52,0l-9.17,8a.75.75,0,0,0-.18.48.74.74,0,0,0,.74.74.69.69,0,0,1,.73.73v9.28h0a.67.67,0,0,0,.68.68H7.66a.73.73,0,0,0,.72-.8V16.62s-.19-1.35,1.46-1.42c0,0,1.76-.16,1.78,1.42V19.2a.73.73,0,0,0,.72.8h3.95Z"/><rect class="cls-2" width="20" height="20"/></g></g></svg>