<svg xmlns="http://www.w3.org/2000/svg" viewBox="0 0 20 20"><defs><style>.cls-1{fill:#fa8e07;}</style></defs><g id="图层_2" data-name="图层 2"><g id="菜单"><path class="cls-1" d="M10,10.63,16.32,20H3.69ZM8.89,8.09a1.53,1.53,0,0,1-.08-2.2A1.59,1.59,0,0,1,11,5.81a.6.6,0,0,1,.08.08A1.54,1.54,0,0,1,11,8.09,1.59,1.59,0,0,1,8.89,8.09ZM2.93,0,4.42,1.47a7.75,7.75,0,0,0,0,11L2.93,14a9.8,9.8,0,0,1,0-14ZM17.07,0a9.8,9.8,0,0,1,0,14h0l-1.49-1.47a7.75,7.75,0,0,0,0-11ZM5.91,2.94,7.4,4.41a3.63,3.63,0,0,0,0,5.16h0L5.91,11A5.69,5.69,0,0,1,5.91,2.94Zm8.18,0a5.69,5.69,0,0,1,0,8.1L12.6,9.57a3.62,3.62,0,0,0,0-5.15h0Z"/></g></g></svg>