<svg xmlns="http://www.w3.org/2000/svg" width="18" height="18" viewBox="0 0 18 18"><defs><style>.a{fill:#fa8e07;}.b{fill:none;}</style></defs><g transform="translate(927.573 -113.459)"><path class="a" d="M-910.047,122.491a.467.467,0,0,1-.312-.119l-8.228-7.235-8.2,7.218a.472.472,0,0,1-.668-.043.472.472,0,0,1,.043-.668l8.207-7.217a.941.941,0,0,1,1.244,0l8.227,7.235a.472.472,0,0,1,.043.668A.473.473,0,0,1-910.047,122.491Z"/><path class="a" d="M-912.2,130.727h-12.75a.964.964,0,0,1-.962-.963v-3.25a.965.965,0,0,1,.308-.705l6.375-5.911h0a.97.97,0,0,1,1.308,0l6.375,5.912a.968.968,0,0,1,.307.705v3.25A.964.964,0,0,1-912.2,130.727Zm-6.707-10.482.322.347-6.375,5.911,0,3.261,12.764.015.014-3.265Z"/><rect class="b" width="18" height="18" transform="translate(-927.573 113.459)"/></g></svg>