<svg xmlns="http://www.w3.org/2000/svg" width="18" height="18" viewBox="0 0 18 18"><defs><style>.a{fill:none;}.b{fill:#fa8e07;}</style></defs><g transform="translate(963.56 -76.702)"><rect class="a" width="18" height="18" transform="translate(-963.56 76.702)"/><path class="b" d="M-947.142,79.873a.583.583,0,0,1,.582.582v2.576a2.857,2.857,0,0,0-1.852,2.671,2.858,2.858,0,0,0,1.852,2.672V90.95a.583.583,0,0,1-.582.582h-14.836a.583.583,0,0,1-.582-.582V88.374a2.858,2.858,0,0,0,1.852-2.672,2.857,2.857,0,0,0-1.852-2.671V80.455a.583.583,0,0,1,.582-.582h14.836m0-1h-14.836a1.582,1.582,0,0,0-1.582,1.582V83.85a1.852,1.852,0,0,1,1.852,1.852,1.853,1.853,0,0,1-1.852,1.853V90.95a1.582,1.582,0,0,0,1.582,1.582h14.836a1.582,1.582,0,0,0,1.582-1.582V87.555a1.853,1.853,0,0,1-1.852-1.853,1.852,1.852,0,0,1,1.852-1.852V80.455a1.582,1.582,0,0,0-1.582-1.582Z"/><rect class="b" width="8.611" height="1" transform="translate(-958.866 82.67)"/><rect class="b" width="8.611" height="1" transform="translate(-958.866 87.734)"/></g></svg>