<svg xmlns="http://www.w3.org/2000/svg" width="45" height="45" viewBox="0 0 45 45"><defs><style>.a{fill:#ff9a0a;}.b{fill:#fff;}</style></defs><g transform="translate(-1009 -447)"><circle class="a" cx="22.5" cy="22.5" r="22.5" transform="translate(1009 447)"/><path class="b" d="M23.206,2a1.189,1.189,0,0,1,1.189,1.189V7.654l-10.7,10.7-.007,5.037,5.047.007,5.656-5.656v6.844a1.189,1.189,0,0,1-1.189,1.189H4.189A1.189,1.189,0,0,1,3,24.583V3.189A1.189,1.189,0,0,1,4.189,2Zm2.113,8.092L27,11.773l-9.245,9.245-1.683,0,0-1.678,9.245-9.245ZM13.7,13.886H7.754v2.377H13.7Zm3.566-4.754H7.754v2.377h9.509Z" transform="translate(1017 456)"/></g></svg>