<svg xmlns="http://www.w3.org/2000/svg" width="45" height="45" viewBox="0 0 45 45"><defs><style>.a{fill:#ff9a0a;}.b{fill:#fff;}</style></defs><g transform="translate(-1066 -447)"><circle class="a" cx="22.5" cy="22.5" r="22.5" transform="translate(1066 447)"/><path class="b" d="M25.667,2A1.272,1.272,0,0,1,27,3.2V24.8A1.272,1.272,0,0,1,25.667,26H4.333A1.272,1.272,0,0,1,3,24.8V3.2A1.272,1.272,0,0,1,4.333,2ZM24.333,18.8H5.667v4.8H24.333ZM21.667,20v2.4H19V20ZM15,2,9.667,6.8h4v6h2.667v-6h4Z" transform="translate(1074 456)"/></g></svg>