<svg xmlns="http://www.w3.org/2000/svg" width="45" height="45" viewBox="0 0 45 45"><defs><style>.a{fill:#ff9a0a;}.b{fill:#fff;}.c{fill:none;stroke:#ff9a0a;stroke-linecap:round;stroke-linejoin:round;stroke-width:2px;}</style></defs><g transform="translate(-1069 -373)"><circle class="a" cx="22.5" cy="22.5" r="22.5" transform="translate(1069 373)"/><g transform="translate(465 -2)"><g transform="translate(614 386)"><path class="b" d="M5,7.333A1.333,1.333,0,0,1,6.333,6h8l3.333,4H29a1.333,1.333,0,0,1,1.333,1.333V28.667A1.333,1.333,0,0,1,29,30H6.333A1.333,1.333,0,0,1,5,28.667Z" transform="translate(-5 -6)"/><path class="c" d="M28,22l3.488,3.488L28,28.976" transform="translate(-12.774 -11.524)"/><path class="c" d="M18.488,22,15,25.488l3.488,3.488" transform="translate(-8.38 -11.524)"/></g></g></g></svg>