<svg xmlns="http://www.w3.org/2000/svg" width="24" height="24" viewBox="0 0 24 24"><defs><style>.a{fill:#ff9a0a;}.b{fill:none;}.c{fill:#fff;}</style></defs><g transform="translate(-270 -1106)"><circle class="a" cx="12" cy="12" r="12" transform="translate(270 1106)"/><g transform="translate(273 1109)"><path class="b" d="M0,0H18V18H0Z"/><path class="c" d="M10.245,1a3.924,3.924,0,0,1,4.019,3.822V7.879A3.924,3.924,0,0,1,10.245,11.7,3.924,3.924,0,0,1,6.226,7.879V4.822A3.924,3.924,0,0,1,10.245,1ZM3.055,8.643h1.62a5.546,5.546,0,0,0,5.57,4.581,5.546,5.546,0,0,0,5.57-4.581h1.621a7.067,7.067,0,0,1-6.386,6.073v3.1H9.441v-3.1A7.067,7.067,0,0,1,3.055,8.643Z" transform="translate(-1.245 -0.408)"/></g></g></svg>