<svg xmlns="http://www.w3.org/2000/svg" width="24" height="24" viewBox="0 0 24 24"><defs><style>.a{fill:#ff9a0a;}.b{fill:#fff;}</style></defs><g transform="translate(-306 -634)"><circle class="a" cx="12" cy="12" r="12" transform="translate(306 634)"/><path class="b" d="M9.177,16.732H5.059A1.059,1.059,0,0,1,4,15.673V9.32A1.059,1.059,0,0,1,5.059,8.261H9.177l5.605-4.587a.529.529,0,0,1,.865.41V20.909a.529.529,0,0,1-.865.41l-5.6-4.587Zm10.561.626-1.506-1.506a4.235,4.235,0,0,0-.34-6.947l1.524-1.524a6.354,6.354,0,0,1,.322,9.976Z" transform="translate(305 633.445)"/></g></svg>