<svg xmlns="http://www.w3.org/2000/svg" viewBox="0 0 15 15"><defs><style>.cls-1{fill:#616060;}.cls-2{fill:none;}</style></defs><g id="图层_2" data-name="图层 2"><g id="图层_1-2" data-name="图层 1"><path class="cls-1" d="M0,6.82A.75.75,0,0,1,.75,6H2.17a.75.75,0,0,1,.75.74v7.1a.75.75,0,0,1-.75.74H1.36a.74.74,0,0,1-.74-.68Z"/><path class="cls-1" d="M5.16,6.52a.8.8,0,0,1,.48-.72A5.16,5.16,0,0,0,7.77,4.13,8.34,8.34,0,0,0,8.52.86a1.09,1.09,0,0,1,0-.18c.1-.73,1.5.12,2,1a2.88,2.88,0,0,1,.3,1.64,7,7,0,0,1-.34,1.56L10.2,6h4.05A.74.74,0,0,1,15,7l-2,7.1a.75.75,0,0,1-.72.54H5.91a.74.74,0,0,1-.75-.74Z"/><rect class="cls-2" width="15" height="15"/></g></g></svg>