<svg xmlns="http://www.w3.org/2000/svg" width="30" height="30" viewBox="0 0 30 30"><defs><style>.a{fill:none;}.b{fill:#fa8e07;}</style></defs><g transform="translate(-380 -1260)"><rect class="a" width="30" height="30" transform="translate(380 1260)"/><path class="b" d="M24.425,16.925a10.494,10.494,0,0,0,2.787-9.873l3.743-1.6A.75.75,0,0,1,32,6.137V27.5L21.5,32l-9-4.5L3.046,31.552A.75.75,0,0,1,2,30.862V9.5L6.694,7.489a10.49,10.49,0,0,0,2.882,9.435L17,24.35ZM22.3,14.8l-5.3,5.3-5.3-5.3a7.5,7.5,0,1,1,10.608,0Z" transform="translate(378 1258)"/></g></svg>