<svg xmlns="http://www.w3.org/2000/svg" width="30" height="30" viewBox="0 0 30 30"><defs><style>.a{fill:none;}.b{fill:#fa8e07;}</style></defs><g transform="translate(-380 -1136)"><rect class="a" width="30" height="30" transform="translate(380 1136)"/><path class="b" d="M17,15.5A7.5,7.5,0,0,1,24.5,23v9H9.5V23A7.5,7.5,0,0,1,17,15.5ZM6.932,20.009a10.475,10.475,0,0,0-.42,2.475L6.5,23v9H2V25.25a5.25,5.25,0,0,1,4.68-5.22l.254-.021Zm20.136,0A5.251,5.251,0,0,1,32,25.25V32H27.5V23A10.472,10.472,0,0,0,27.068,20.009ZM7.25,11A3.75,3.75,0,1,1,3.5,14.75,3.75,3.75,0,0,1,7.25,11Zm19.5,0A3.75,3.75,0,1,1,23,14.75,3.75,3.75,0,0,1,26.75,11ZM17,2a6,6,0,1,1-6,6A6,6,0,0,1,17,2Z" transform="translate(378 1134)"/></g></svg>