<svg xmlns="http://www.w3.org/2000/svg" width="30" height="30" viewBox="0 0 30 30"><defs><style>.a{fill:none;}.b{fill:#fa8e07;}</style></defs><g transform="translate(-744 -1136)"><rect class="a" width="30" height="30" transform="translate(744 1136)"/><path class="b" d="M14,28.622V23.6c0-1.924,1.493-3.438,3.7-4.3A12.773,12.773,0,0,0,5.68,20.99,12.026,12.026,0,0,0,14,28.622Zm13.32-5.493c-.593-.8-2.565-1.629-5.07-1.629-3.009,0-5.25,1.2-5.25,2.1V29a11.994,11.994,0,0,0,10.32-5.871Zm-14-6.879A3.375,3.375,0,1,0,9.95,12.875,3.375,3.375,0,0,0,13.325,16.25Zm8.925,1.5a3,3,0,1,0-3-3A3,3,0,0,0,22.25,17.75ZM17,32A15,15,0,1,1,32,17,15,15,0,0,1,17,32Z" transform="translate(742 1134)"/></g></svg>