<svg xmlns="http://www.w3.org/2000/svg" width="30" height="30" viewBox="0 0 30 30"><defs><style>.a{fill:none;}.b{fill:#fa8e07;}</style></defs><g transform="translate(-1066 -1136)"><rect class="a" width="30" height="30" transform="translate(1066 1136)"/><path class="b" d="M2.364,24.818v-15H1V7.091H5.091V4.364A1.364,1.364,0,0,1,6.455,3H25.545a1.364,1.364,0,0,1,1.364,1.364V7.091H31V9.818H29.636v15H31v2.727H1V24.818Zm15,0V15.273H14.636v9.545Zm-6.818,0V15.273H7.818v9.545Zm13.636,0V15.273H21.455v9.545ZM7.818,5.727V7.091H24.182V5.727Z" transform="translate(1065 1135.727)"/></g></svg>