<svg xmlns="http://www.w3.org/2000/svg" width="30" height="30" viewBox="0 0 30 30"><defs><style>.a{fill:none;}.b{fill:#fa8e07;}</style></defs><g transform="translate(-1197 -630)"><path class="a" d="M0,0H30V30H0Z" transform="translate(1197 630)"/><path class="b" d="M26.909,26.781a1.364,1.364,0,0,1-1.364,1.364H6.455a1.364,1.364,0,0,1-1.364-1.364V14.508H1l14.082-12.8a1.364,1.364,0,0,1,1.835,0L31,14.508H26.909ZM11.353,18.338,10,19.118l1.364,2.363,1.354-.781a4.773,4.773,0,0,0,1.916,1.106v1.561h2.73V21.8a4.773,4.773,0,0,0,1.916-1.1l1.353.78L22,19.118l-1.351-.78a4.778,4.778,0,0,0,0-2.209L22,15.347l-1.364-2.363-1.354.781a4.773,4.773,0,0,0-1.919-1.1V11.1h-2.73v1.56a4.773,4.773,0,0,0-1.916,1.106l-1.353-.781L10,15.348l1.351.78a4.778,4.778,0,0,0,0,2.209ZM16,19.278a2.046,2.046,0,1,1,2.044-2.048A2.046,2.046,0,0,1,16,19.278Z" transform="translate(1196 630.648)"/></g></svg>