<svg xmlns="http://www.w3.org/2000/svg" width="30" height="30" viewBox="0 0 30 30"><defs><style>.a{fill:#fa8e07;}.b{fill:none;}</style></defs><g transform="translate(1846.466 2604.302)"><path class="a" d="M-1831.466-2601.944l-7.49,7.49,7.49,7.49,7.49-7.49Zm1.411,10.234a2.117,2.117,0,0,1-1.421.48,2.2,2.2,0,0,1-1.379-.5,2.246,2.246,0,0,1-.752-1.4l.752-.125a2.025,2.025,0,0,0,.543.9,1.243,1.243,0,0,0,.941.334,1.124,1.124,0,0,0,.9-.46,1.43,1.43,0,0,0,.293-1,1.176,1.176,0,0,0-.439-.878,2.7,2.7,0,0,0-1.275-.438v-.544a2.113,2.113,0,0,0,1.275-.46,1.171,1.171,0,0,0,.355-.982,1.014,1.014,0,0,0-.543-.878,1.245,1.245,0,0,0-1.066-.062,1.743,1.743,0,0,0-.9,1.17l-.753-.125a3.6,3.6,0,0,1,.69-1.254,1.775,1.775,0,0,1,1.191-.585,2.375,2.375,0,0,1,1.317.188,1.556,1.556,0,0,1,.794.836,1.964,1.964,0,0,1,.063,1.233,2,2,0,0,1-.962,1.17,1.92,1.92,0,0,1,.9.752,1.972,1.972,0,0,1,.209,1.317A1.943,1.943,0,0,1-1830.055-2591.71Z"/><path class="a" d="M-1838.976-2591.64l-7.49,7.49,7.49,7.49,7.49-7.49Zm-.389,11.179v-5.768a7.114,7.114,0,0,1-1.379,1.045v-.794a6.516,6.516,0,0,0,1.713-1.672h.5v7.189Z"/><path class="a" d="M-1823.956-2591.64l-7.49,7.49,7.49,7.49,7.49-7.49Zm-2.268,11.179v-.167a1.662,1.662,0,0,1,.585-1.128,14.056,14.056,0,0,0,1.38-1.568,8.386,8.386,0,0,0,1.086-1.651,1.89,1.89,0,0,0,.188-1,1.066,1.066,0,0,0-.4-.69,1.029,1.029,0,0,0-.773-.229,1.667,1.667,0,0,0-.836.334,1.8,1.8,0,0,0-.606.878l-.794-.126a3.124,3.124,0,0,1,.857-1.4,2.053,2.053,0,0,1,1.233-.481,2.68,2.68,0,0,1,.752.021,1.948,1.948,0,0,1,.69.293,1.706,1.706,0,0,1,.585.69,2.016,2.016,0,0,1,.167,1.107,3.64,3.64,0,0,1-.648,1.547,30.143,30.143,0,0,1-2.257,2.821h3.01v.752Z"/><rect class="b" width="30" height="30" transform="translate(-1846.466 -2604.302)"/></g></svg>