<svg xmlns="http://www.w3.org/2000/svg" width="30" height="30" viewBox="0 0 30 30"><defs><style>.a{fill:none;}.b{fill:#fa8e07;}</style></defs><g transform="translate(-744 -1198)"><rect class="a" width="30" height="30" transform="translate(744 1198)"/><path class="b" d="M24.965,17.606a1.241,1.241,0,0,0,1.225-1.225,1.225,1.225,0,1,0-1.225,1.225Zm-6.034,0a1.241,1.241,0,0,0,1.225-1.225,1.225,1.225,0,1,0-1.225,1.225Zm8.955,6.873a.473.473,0,0,0-.235.5.422.422,0,0,0,.034.2c.134.569.4,1.474.4,1.508,0,.1.034.166.034.235a.3.3,0,0,1-.3.3c-.068,0-.1-.033-.168-.065l-1.976-1.14a1.09,1.09,0,0,0-.469-.134.666.666,0,0,0-.267.033,10.594,10.594,0,0,1-2.947.4c-4.991,0-9.01-3.35-9.01-7.507s4.019-7.507,9.01-7.507S31,14.66,31,18.815a7.046,7.046,0,0,1-3.115,5.665ZM22.372,9.953q-.191-.006-.382-.007c-5.692,0-10.372,3.9-10.372,8.87A7.812,7.812,0,0,0,11.93,21h-.121a13.586,13.586,0,0,1-3.524-.5.919.919,0,0,0-.3-.034,1.135,1.135,0,0,0-.57.168L5.028,22a.48.48,0,0,1-.2.068.372.372,0,0,1-.368-.368.778.778,0,0,1,.067-.269c.033-.033.335-1.137.5-1.805,0-.068.033-.168.033-.235a.758.758,0,0,0-.3-.6A8.368,8.368,0,0,1,1,12C1,7.016,5.868,3,11.841,3c5.134,0,9.45,2.958,10.531,6.952Zm-7.028.57a1.409,1.409,0,0,0,1.4-1.4,1.4,1.4,0,1,0-1.4,1.4Zm-7.173,0a1.41,1.41,0,0,0,1.4-1.4,1.4,1.4,0,1,0-1.4,1.4Z" transform="translate(743 1198.387)"/></g></svg>