<svg xmlns="http://www.w3.org/2000/svg" width="30" height="30" viewBox="0 0 30 30"><defs><style>.a{fill:none;}.b{fill:#fa8e07;}</style></defs><g transform="translate(-1066 -1074)"><rect class="a" width="30" height="30" transform="translate(1066 1074)"/><path class="b" d="M17,32A15,15,0,1,1,32,17,15,15,0,0,1,17,32Zm9.532-9.072v-.157c0-1.383,0-2.014-.978-2.574q-.472-.267-.967-.487a2.754,2.754,0,0,1-1.407-1.134q-.088-.128-.174-.258a1.921,1.921,0,0,0-2.313-1.13c-2.8.444-3,.936-3.128,1.767l-.019.136c-.182,1.215-.215,1.623.292,2.156a18.457,18.457,0,0,1,3.379,4.266,5,5,0,0,1,.3,2.877,12.277,12.277,0,0,0,4.727-3.355,7.438,7.438,0,0,0,.285-2.106ZM17,4.749A12.218,12.218,0,0,0,8.156,8.524a1.9,1.9,0,0,1,.655.8,4.776,4.776,0,0,1,.306,2.017,3.268,3.268,0,0,0,.157,1.3c.216.462,1.149.66,1.972.831.3.063.6.126.875.2a4.114,4.114,0,0,1,1.816,1.44,4.181,4.181,0,0,0,.63.645A1.525,1.525,0,0,0,15,15.011a.879.879,0,0,0-.068-.78,4.383,4.383,0,0,1-.534-3.6c.408-1.108,1.683-1.026,2.616-.966a5.359,5.359,0,0,0,.921.014c.933-.117,1.221-1.538,1.424-1.815A13.333,13.333,0,0,1,21.972,5.8,12.207,12.207,0,0,0,17,4.75Z" transform="translate(1064 1072)"/></g></svg>