<svg xmlns="http://www.w3.org/2000/svg" width="30" height="30" viewBox="0 0 30 30"><defs><style>.a{fill:none;}.b{fill:#fa8e07;}</style></defs><g transform="translate(-744 -1074)"><rect class="a" width="30" height="30" transform="translate(744 1074)"/><path class="b" d="M2,31a11.429,11.429,0,1,1,22.857,0ZM13.429,18.143A8.571,8.571,0,1,1,22,9.571,8.569,8.569,0,0,1,13.429,18.143Zm10.519,3.19A10.721,10.721,0,0,1,31.976,31H27.714A14.238,14.238,0,0,0,23.947,21.333Zm-2.89-3.251A11.435,11.435,0,0,0,23.407,4a7.144,7.144,0,0,1-2.35,14.086Z" transform="translate(742.024 1073)"/></g></svg>