<svg xmlns="http://www.w3.org/2000/svg" width="30" height="30" viewBox="0 0 30 30"><defs><style>.a{fill:none;}.b{fill:#fa8e07;}</style></defs><g transform="translate(-744 -1012)"><rect class="a" width="30" height="30" transform="translate(744 1012)"/><path class="b" d="M-4045.453,12.792h-19.093a1.365,1.365,0,0,1-1.364-1.364V-.843H-4070l14.084-12.8A1.354,1.354,0,0,1-4055-14a1.364,1.364,0,0,1,.918.355L-4040-.843h-4.091V11.429A1.364,1.364,0,0,1-4045.453,12.792ZM-4055,4.117h0l4.027,2.459-1.095-4.591,3.584-3.07-4.705-.376L-4055-5.818l-1.812,4.358-4.7.376,3.584,3.07-1.1,4.591L-4055,4.117Z" transform="translate(4814 1028.104)"/></g></svg>