<svg xmlns="http://www.w3.org/2000/svg" width="30" height="30" viewBox="0 0 30 30"><defs><style>.a{fill:none;}.b{fill:#fa8e07;}</style></defs><g transform="translate(-1066 -950)"><rect class="a" width="30" height="30" transform="translate(1066 950)"/><path class="b" d="M4.068,3.49,15.273,1l11.2,2.49a1.364,1.364,0,0,1,1.068,1.331V18.44A8.182,8.182,0,0,1,23.9,25.246L15.273,31,6.644,25.247A8.182,8.182,0,0,1,3,18.441V4.821A1.364,1.364,0,0,1,4.067,3.49Zm11.2,11.146a3.409,3.409,0,1,0-3.409-3.409A3.409,3.409,0,0,0,15.273,14.636Zm-6.1,6.818h12.2a6.136,6.136,0,0,0-12.2,0Z" transform="translate(1065.728 949)"/></g></svg>