<svg xmlns="http://www.w3.org/2000/svg" width="30" height="30" viewBox="0 0 30 30"><defs><style>.a{fill:none;}.b{fill:#fa8e07;}</style></defs><g transform="translate(-1066 -1198)"><rect class="a" width="30" height="30" transform="translate(1066 1198)"/><path class="b" d="M15.428,9.143A11.428,11.428,0,1,1,4,20.571,11.428,11.428,0,0,1,15.428,9.143Zm0,5-1.89,3.828-4.224.614,3.057,2.978-.721,4.208,3.778-1.987,3.778,1.986-.721-4.207,3.057-2.98-4.224-.614ZM16.857,2H24V6.286L22.052,7.912a14.192,14.192,0,0,0-5.2-1.556V2ZM14,2V6.356A14.192,14.192,0,0,0,8.805,7.91L6.857,6.286V2H14Z" transform="translate(1065.572 1196.001)"/></g></svg>