<svg xmlns="http://www.w3.org/2000/svg" width="15" height="15.08" viewBox="0 0 15 15.08"><defs><style>.a,.b{fill:none;}.b{stroke:#929191;stroke-miterlimit:10;stroke-width:0.5px;}</style></defs><g transform="translate(-488 -751.007)"><rect class="a" width="15" height="15" transform="translate(488 751.087)"/><path class="b" d="M257.405,1733.736a4.606,4.606,0,0,0,1.225-4.336l1.645-.705a.329.329,0,0,1,.433.173.358.358,0,0,1,.025.13v9.384l-4.612,1.977-3.953-1.977-4.154,1.779a.328.328,0,0,1-.433-.173.354.354,0,0,1-.025-.13v-9.384l2.06-.882a4.607,4.607,0,0,0,1.266,4.144l3.262,3.262Zm-.931-1.895-2.331,2.329-2.329-2.331a3.294,3.294,0,1,1,4.66,0Z" transform="translate(241.399 -974.744)"/></g></svg>