<svg xmlns="http://www.w3.org/2000/svg" width="16" height="16" viewBox="0 0 16 16"><defs><style>.a{fill:none;}.b{fill:#fff;}</style></defs><g transform="translate(-610 -468)"><rect class="a" width="16" height="16" transform="translate(610 468)"/><path class="b" d="M3.524,4.919V14.69l3.859-1.653,4.572,2.286,3.76-1.613V3.939l.993-.425a.381.381,0,0,1,.531.35V14.715L11.905,17,7.334,14.715l-4.8,2.058A.381.381,0,0,1,2,16.422V5.572ZM12.852,8.8,9.619,12.037,6.386,8.8a4.572,4.572,0,1,1,6.466,0ZM9.619,9.882l2.155-2.156a3.048,3.048,0,1,0-4.309,0Z" transform="translate(608.381 466.999)"/></g></svg>