<svg xmlns="http://www.w3.org/2000/svg" width="16" height="15.999" viewBox="0 0 16 15.999"><defs><style>.a{fill:#fff;}</style></defs><path class="a" d="M15.545,6.091A1.455,1.455,0,0,1,17,7.546v2.909a1.455,1.455,0,0,1-1.455,1.455h-.772A5.819,5.819,0,0,1,9,17V15.546a4.364,4.364,0,0,0,4.364-4.364V6.818a4.364,4.364,0,1,0-8.727,0v5.091H2.455A1.455,1.455,0,0,1,1,10.455V7.546A1.455,1.455,0,0,1,2.455,6.091h.772a5.819,5.819,0,0,1,11.546,0ZM5.916,11.753l.771-1.233a4.368,4.368,0,0,0,4.625,0l.771,1.233a5.822,5.822,0,0,1-6.167,0Z" transform="translate(-1 -1.001)"/></svg>